<mxfile host="app.diagrams.net" modified="2025-04-28T09:53:07.478Z" agent="Mozilla/5.0 (Windows NT 10.0; Win64; x64) AppleWebKit/537.36 (KHTML, like Gecko) Chrome/135.0.0.0 Safari/537.36" etag="YoIH5tmUz0Z4EuUIp79j" version="24.5.4" type="device">
  <diagram id="university_masters_app_diagram" name="University Masters App">
    <mxGraphModel dx="1434" dy="778" grid="1" gridSize="10" guides="1" tooltips="1" connect="1" arrows="1" fold="1" page="1" pageScale="1" pageWidth="827" pageHeight="1169" math="0" shadow="0">
      <root>
        <mxCell id="0" />
        <mxCell id="1" parent="0" />
        <mxCell id="users_feedback" value="" style="endArrow=block;html=1;endSize=12;startArrow=none;startSize=14;startFill=0;edgeStyle=orthogonalEdgeStyle;rounded=0;exitX=0;exitY=0.5;exitDx=0;exitDy=0;entryX=0;entryY=0.5;entryDx=0;entryDy=0;endFill=1;" parent="1" target="feedback" edge="1">
          <mxGeometry relative="1" as="geometry">
            <mxPoint x="200" y="95" as="sourcePoint" />
            <mxPoint x="490" y="390" as="targetPoint" />
            <Array as="points">
              <mxPoint x="20" y="95" />
              <mxPoint x="20" y="515" />
            </Array>
          </mxGeometry>
        </mxCell>
        <mxCell id="users_feedback_label2" value="0..*" style="edgeLabel;html=1;align=center;verticalAlign=middle;resizable=0;points=[];" parent="users_feedback" vertex="1" connectable="0">
          <mxGeometry x="0.9" y="-1" relative="1" as="geometry">
            <mxPoint as="offset" />
          </mxGeometry>
        </mxCell>
        <mxCell id="Ic68_rj7VZZmHHNEVSfd-19" value="Etablissement" style="shape=umlActor;verticalLabelPosition=bottom;verticalAlign=top;html=1;outlineConnect=0;" vertex="1" parent="1">
          <mxGeometry x="30" y="260" width="30" height="60" as="geometry" />
        </mxCell>
        <mxCell id="Ic68_rj7VZZmHHNEVSfd-24" value="Creation de master" style="ellipse;whiteSpace=wrap;html=1;" vertex="1" parent="1">
          <mxGeometry x="309" y="60" width="210" height="50" as="geometry" />
        </mxCell>
        <mxCell id="Ic68_rj7VZZmHHNEVSfd-26" value="" style="endArrow=classic;html=1;rounded=0;entryX=0;entryY=0.5;entryDx=0;entryDy=0;" edge="1" parent="1" source="Ic68_rj7VZZmHHNEVSfd-19" target="Ic68_rj7VZZmHHNEVSfd-24">
          <mxGeometry width="50" height="50" relative="1" as="geometry">
            <mxPoint x="480" y="300" as="sourcePoint" />
            <mxPoint x="530" y="250" as="targetPoint" />
            <Array as="points" />
          </mxGeometry>
        </mxCell>
        <mxCell id="Ic68_rj7VZZmHHNEVSfd-27" value="Consulter les candidatures" style="ellipse;whiteSpace=wrap;html=1;" vertex="1" parent="1">
          <mxGeometry x="309" y="265" width="210" height="50" as="geometry" />
        </mxCell>
        <mxCell id="Ic68_rj7VZZmHHNEVSfd-28" value="" style="endArrow=classic;html=1;rounded=0;entryX=0;entryY=0.5;entryDx=0;entryDy=0;" edge="1" parent="1" target="Ic68_rj7VZZmHHNEVSfd-27" source="Ic68_rj7VZZmHHNEVSfd-19">
          <mxGeometry width="50" height="50" relative="1" as="geometry">
            <mxPoint x="70" y="467" as="sourcePoint" />
            <mxPoint x="540" y="440" as="targetPoint" />
            <Array as="points" />
          </mxGeometry>
        </mxCell>
        <mxCell id="Ic68_rj7VZZmHHNEVSfd-29" value="Accepter" style="ellipse;whiteSpace=wrap;html=1;" vertex="1" parent="1">
          <mxGeometry x="150" y="400" width="210" height="50" as="geometry" />
        </mxCell>
        <mxCell id="Ic68_rj7VZZmHHNEVSfd-31" value="Rejeter" style="ellipse;whiteSpace=wrap;html=1;" vertex="1" parent="1">
          <mxGeometry x="430" y="400" width="210" height="50" as="geometry" />
        </mxCell>
        <mxCell id="Ic68_rj7VZZmHHNEVSfd-32" value="" style="endArrow=open;dashed=1;html=1;dashPattern=1 3;strokeWidth=2;rounded=0;exitX=0.5;exitY=0;exitDx=0;exitDy=0;entryX=0.5;entryY=1;entryDx=0;entryDy=0;endFill=0;" edge="1" parent="1" source="Ic68_rj7VZZmHHNEVSfd-29" target="Ic68_rj7VZZmHHNEVSfd-27">
          <mxGeometry width="50" height="50" relative="1" as="geometry">
            <mxPoint x="480" y="300" as="sourcePoint" />
            <mxPoint x="530" y="250" as="targetPoint" />
          </mxGeometry>
        </mxCell>
        <mxCell id="Ic68_rj7VZZmHHNEVSfd-33" value="extend" style="edgeLabel;html=1;align=center;verticalAlign=middle;resizable=0;points=[];" vertex="1" connectable="0" parent="Ic68_rj7VZZmHHNEVSfd-32">
          <mxGeometry x="0.0062" y="-4" relative="1" as="geometry">
            <mxPoint as="offset" />
          </mxGeometry>
        </mxCell>
        <mxCell id="Ic68_rj7VZZmHHNEVSfd-34" value="" style="endArrow=none;dashed=1;html=1;dashPattern=1 3;strokeWidth=2;rounded=0;exitX=0.5;exitY=1;exitDx=0;exitDy=0;entryX=0.5;entryY=0;entryDx=0;entryDy=0;endFill=0;startArrow=open;startFill=0;" edge="1" parent="1" source="Ic68_rj7VZZmHHNEVSfd-27" target="Ic68_rj7VZZmHHNEVSfd-31">
          <mxGeometry width="50" height="50" relative="1" as="geometry">
            <mxPoint x="480" y="300" as="sourcePoint" />
            <mxPoint x="530" y="250" as="targetPoint" />
          </mxGeometry>
        </mxCell>
        <mxCell id="Ic68_rj7VZZmHHNEVSfd-35" value="extend" style="edgeLabel;html=1;align=center;verticalAlign=middle;resizable=0;points=[];" vertex="1" connectable="0" parent="Ic68_rj7VZZmHHNEVSfd-34">
          <mxGeometry x="0.0516" y="-3" relative="1" as="geometry">
            <mxPoint as="offset" />
          </mxGeometry>
        </mxCell>
        <mxCell id="Ic68_rj7VZZmHHNEVSfd-36" value="Suppression de master" style="ellipse;whiteSpace=wrap;html=1;" vertex="1" parent="1">
          <mxGeometry x="309" y="150" width="210" height="50" as="geometry" />
        </mxCell>
        <mxCell id="Ic68_rj7VZZmHHNEVSfd-37" value="" style="endArrow=classic;html=1;rounded=0;entryX=0;entryY=0.5;entryDx=0;entryDy=0;" edge="1" parent="1" target="Ic68_rj7VZZmHHNEVSfd-36">
          <mxGeometry width="50" height="50" relative="1" as="geometry">
            <mxPoint x="60" y="280" as="sourcePoint" />
            <mxPoint x="520" y="340" as="targetPoint" />
            <Array as="points" />
          </mxGeometry>
        </mxCell>
      </root>
    </mxGraphModel>
  </diagram>
</mxfile>
